<?xml version="1.0" encoding="UTF-8" standalone="no"?>
<!-- Created with Inkscape (http://www.inkscape.org/) -->

<svg
   xmlns:dc="http://purl.org/dc/elements/1.1/"
   xmlns:cc="http://creativecommons.org/ns#"
   xmlns:rdf="http://www.w3.org/1999/02/22-rdf-syntax-ns#"
   xmlns:svg="http://www.w3.org/2000/svg"
   xmlns="http://www.w3.org/2000/svg"
   xmlns:sodipodi="http://sodipodi.sourceforge.net/DTD/sodipodi-0.dtd"
   xmlns:inkscape="http://www.inkscape.org/namespaces/inkscape"
   width="744.09448819"
   height="1052.3622047"
   id="svg2"
   version="1.1"
   inkscape:version="0.48+devel r9772"
   sodipodi:docname="New document 1">
  <defs
     id="defs4" />
  <sodipodi:namedview
     id="base"
     pagecolor="#ffffff"
     bordercolor="#666666"
     borderopacity="1.0"
     inkscape:pageopacity="0.0"
     inkscape:pageshadow="2"
     inkscape:zoom="0.60150394"
     inkscape:cx="372.04724"
     inkscape:cy="526.18109"
     inkscape:document-units="px"
     inkscape:current-layer="layer1"
     showgrid="false"
     inkscape:window-width="1440"
     inkscape:window-height="851"
     inkscape:window-x="0"
     inkscape:window-y="1"
     inkscape:window-maximized="1" />
  <metadata
     id="metadata7">
    <rdf:RDF>
      <cc:Work
         rdf:about="">
        <dc:format>image/svg+xml</dc:format>
        <dc:type
           rdf:resource="http://purl.org/dc/dcmitype/StillImage" />
        <dc:title></dc:title>
      </cc:Work>
    </rdf:RDF>
  </metadata>
  <g
     inkscape:label="Layer 1"
     inkscape:groupmode="layer"
     id="layer1">
    <g
       id="g3933"
       transform="translate(-7.4480662e-5,-1.1933914e-5)">
      <path
         transform="matrix(1.8284788,0,0,1.7802495,1013.8485,-613.60642)"
         d="m -221.11243,497.08734 c 0,79.88106 -52.475,144.63745 -117.2062,144.63745 -64.7312,0 -117.20621,-64.75639 -117.20621,-144.63745 0,-79.88106 52.47501,-144.63745 117.20621,-144.63745 64.7312,0 117.2062,64.75639 117.2062,144.63745 z"
         sodipodi:ry="144.63745"
         sodipodi:rx="117.20621"
         sodipodi:cy="497.08734"
         sodipodi:cx="-338.31863"
         id="path3925"
         style="fill:#e11e24;fill-opacity:1;stroke-width:8;stroke-linecap:round;stroke-linejoin:round;stroke-miterlimit:4;stroke-dasharray:none"
         sodipodi:type="arc" />
      <path
         sodipodi:nodetypes="cccccccccccc"
         inkscape:connector-curvature="0"
         id="path3155"
         d="M 423.27989,1030.8239 C 393.10914,873.23811 273.10089,723.58363 355.48683,575.3937 224.73087,470.41993 92.61492,366.12617 160.79914,161.68231 239.26966,-17.573085 485.3347,8.4183558 541.48315,149.51432 638.95717,384.75894 436.22196,526.74266 353.74856,561.48744 c -33.88308,3.88358 -73.78761,-5.11195 -97.34387,20.85939 -27.19041,28.81352 -26.89666,52.0861 12.16799,64.31647 50.51995,-3.94626 66.99762,-41.93479 95.60558,-67.79304 35.21546,32.30862 65.6769,50.83986 97.34385,43.45708 30.45128,-23.37935 12.92483,-41.27553 -5.21484,-59.10163 -31.86852,-7.8014 -63.73706,-2.68201 -95.60558,3.47656 20.64935,44.45615 0.88639,100.12064 48.67194,137.32436"
         style="fill:none;stroke:#000000;stroke-width:15.39197159;stroke-linecap:round;stroke-linejoin:round;stroke-miterlimit:4;stroke-opacity:1;stroke-dasharray:none" />
    </g>
  </g>
</svg>
